<?xml version="1.0" encoding="UTF-8"?><svg id="b" xmlns="http://www.w3.org/2000/svg" viewBox="0 0 20 14.01"><defs><style>.d{fill:#fff;}</style></defs><g id="c"><path class="d" d="m9.3,10c-.4-.6-.4-1.4,0-2,1.6-.1,2.9-1.6,2.7-3.2-.1-1.6-1.4-2.8-3-2.8h-4c-1.7,0-3,1.3-3,3s1.3,3,3,3h.1c-.1.7-.1,1.3,0,2h-.1C2.2,10,0,7.8,0,5S2.2,0,5,0h4c2.8-.1,5.1,2.1,5.1,4.9.1,2.7-2.1,5-4.8,5.1h0Zm1.4-6c.4.6.4,1.4,0,2-1.6.1-2.9,1.6-2.7,3.2.1,1.6,1.4,2.8,3,2.8h4c1.7,0,3-1.3,3-3s-1.3-3-3-3h-.1c.1-.7.1-1.3,0-2h.1c2.8,0,5,2.2,5,5s-2.2,5-5,5h-4c-2.8.1-5.1-2.1-5.1-4.9-.1-2.7,2.1-5,4.8-5.1Z"/></g></svg>