<?xml version="1.0" encoding="UTF-8"?><svg id="b" xmlns="http://www.w3.org/2000/svg" viewBox="0 0 250 149"><g id="c"><path d="m186.5,149h-.75c-3.31-1.01-4.85-3.29-5.17-6.7-.4-4.14-1.04-8.26-1.58-12.38-1.26-9.66-2.52-19.31-3.8-28.96-.65-4.96-2.48-6.03-7.09-4.16-12.48,5.06-24.96,10.12-37.44,15.19-3.68,1.5-7.34,1.62-11.05.11-8.39-3.42-16.8-6.82-25.2-10.21-4.59-1.85-9.15-3.78-13.78-5.5-3.28-1.21-5.17.02-5.64,3.44-.64,4.7-1.2,9.41-1.83,14.11-1.2,8.99-2.56,17.96-3.57,26.97-.4,3.6-1.23,6.6-4.86,8.1h-1c-3.46-1.17-4.91-3.73-5.04-7.23-.03-.79-.15-1.57-.26-2.36-1.49-11.26-2.96-22.52-4.49-33.77-.31-2.31-.4-4.65-.99-6.91-.58-2.24-2.34-3.24-4.58-2.62-.72.2-1.44.42-2.13.7-12.64,5.11-25.26,10.24-37.9,15.34-.96.39-1.96.73-2.97.92-2.93.55-6.33-2.3-4.86-5.63.71-1.61,1.79-2.76,3.11-3.8,8.92-7.04,17.84-14.09,26.75-21.14,2.29-1.81,4.6-3.58,6.83-5.46,2.26-1.92,2.24-4.2.06-6.18-.4-.36-.82-.71-1.25-1.04-10.52-8.31-21.04-16.61-31.57-24.91-1.95-1.53-3.79-3.12-4.46-5.65v-.75c1.83-3.05,4.03-3.81,7.33-2.48,11.06,4.45,22.12,8.93,33.19,13.36,2.77,1.11,5.46,2.48,8.37,3.22,2.37.6,4.25-.74,4.6-3.15.59-4.12,1.17-8.24,1.74-12.36,1.44-10.38,2.88-20.76,4.33-31.14.27-1.94.88-3.73,2.54-4.97.46-.34,1.09-.44,1.41-.98h1c2.31,1.22,3.81,2.99,4.07,5.71.18,1.95.5,3.88.77,5.82,1.3,9.27,2.6,18.55,3.91,27.82.48,3.42.92,6.85,1.51,10.25.43,2.48,2.16,3.53,4.58,2.9,1.32-.34,2.61-.84,3.88-1.35,12.35-4.94,24.69-9.91,37.05-14.85,3.01-1.2,6.08-1.3,9.14-.11,2.32.91,4.63,1.85,6.95,2.78,10.96,4.4,21.91,8.81,32.88,13.19,3.59,1.44,5.78.1,6.26-3.65.76-5.86,1.58-11.71,2.39-17.57,1.03-7.46,2.11-14.91,3.11-22.38.46-3.42.76-6.89,4.5-8.57h.75c2.99,1.32,4.12,3.77,4.3,6.88.08,1.37.36,2.72.55,4.08,1.39,9.93,2.78,19.85,4.18,29.78.4,2.84.79,5.69,1.25,8.52.45,2.79,2.38,3.99,5.07,3.16,1.19-.37,2.34-.85,3.5-1.32,12.49-5.01,24.98-10.04,37.48-15.05,3.48-1.4,5.66-.66,7.43,2.45v.75c-.69,2.12-2,3.76-3.76,5.12-4.7,3.65-9.36,7.35-14.03,11.04-6.43,5.08-12.87,10.15-19.28,15.26-2.38,1.9-2.41,4.29-.17,6.35.49.45,1,.88,1.52,1.29,8.85,6.99,17.75,13.91,26.52,21,3.37,2.72,7.55,4.71,9.19,9.19v1c-1.91,3.72-3.68,4.47-7.66,2.89-10.73-4.27-21.43-8.65-32.15-12.95-2.77-1.11-5.47-2.44-8.36-3.27-2.5-.72-4.27.36-4.85,2.88-.1.44-.19.89-.25,1.35-.67,5.07-1.33,10.14-1.99,15.22-1.17,9.03-2.35,18.06-3.51,27.1-.28,2.2-1,4.13-2.99,5.35-.56.35-1.16.63-1.75.95Zm-61.37-103.29c-1.9-.04-3.41.7-4.78,1.79-2.02,1.61-4.03,3.23-6.05,4.83-7.79,6.19-15.61,12.35-23.37,18.58-2.77,2.22-2.72,4.65.05,6.82,6.3,4.93,12.63,9.8,18.95,14.7,3.59,2.78,7.14,5.6,10.78,8.32,2.71,2.03,5.88,2.07,8.45.09,10.04-7.71,20.05-15.46,30.04-23.23,2.57-2,2.56-4.51.02-6.59-2.96-2.43-5.99-4.78-8.98-7.16-6.85-5.44-13.7-10.87-20.54-16.32-1.37-1.09-2.85-1.86-4.56-1.82Z"/></g></svg>