<?xml version="1.0" encoding="utf-8"?>
<!-- Generator: Adobe Illustrator 27.7.0, SVG Export Plug-In . SVG Version: 6.00 Build 0)  -->
<svg version="1.1" id="Layer_1" xmlns="http://www.w3.org/2000/svg" xmlns:xlink="http://www.w3.org/1999/xlink" x="0px" y="0px"
	 viewBox="0 0 500 500" style="enable-background:new 0 0 500 500;" xml:space="preserve">
<style type="text/css">
	.st0{fill:#FFFFF1;}
</style>
<path class="st0" d="M457.9,3H200.1H159H42.1H4.9H1v494h3.9h37.2H159h41.1h257.8H499v-41.1V346v-41V195v-41V44.1V3H457.9z M159,44.1
	V154H42.1V44.1H159z M159,195v110H42.1V195H159z M42.1,455.9V346H159v109.9H42.1z M457.9,455.9H200.1V346h257.8V455.9z M457.9,305
	H200.1V195h257.8V305z M457.9,154H200.1V44.1h257.8V154z"/>
<rect x="214.7" y="81.3" class="st0" width="229.5" height="35.4"/>
<rect x="214.8" y="232.3" class="st0" width="229.5" height="35.4"/>
<rect x="214.8" y="383.3" class="st0" width="229.5" height="35.4"/>
<polygon class="st0" points="150.9,80.2 126.5,55.8 89.7,92.6 72.1,75.1 46.9,100.4 88.7,142.2 88.8,142.1 88.9,142.2 "/>
<polygon class="st0" points="150.9,231.2 126.5,206.8 89.7,243.6 72.1,226.1 46.9,251.4 88.7,293.2 88.8,293.1 88.9,293.2 "/>
<polygon class="st0" points="150.9,382.2 126.5,357.8 89.7,394.6 72.1,377.1 46.9,402.4 88.7,444.2 88.8,444.1 88.9,444.2 "/>
</svg>
