<?xml version="1.0" encoding="utf-8"?>
<!-- Generator: Adobe Illustrator 27.7.0, SVG Export Plug-In . SVG Version: 6.00 Build 0)  -->
<svg version="1.1" id="Layer_1" xmlns="http://www.w3.org/2000/svg" xmlns:xlink="http://www.w3.org/1999/xlink" x="0px" y="0px"
	 viewBox="0 0 202.2 53.4" style="enable-background:new 0 0 202.2 53.4;" xml:space="preserve">
<style type="text/css">
	.st0{fill:#231F20;}
</style>
<path class="st0" d="M44.4,19.8v0.5c0,1-0.4,1.9-1.1,2.7s-1.6,1.1-2.7,1.1h-9.7c-1.3,0-2.5-0.5-3.4-1.4c-0.9-0.9-1.4-2.1-1.4-3.4
	V4.8c0-1.3,0.5-2.5,1.4-3.4S29.5,0,30.8,0h0.4c1.3,0,2.4,0.5,3.4,1.4C35.6,2.4,36,3.5,36,4.8v10.6c0,0.2,0.1,0.3,0.2,0.5
	s0.3,0.2,0.5,0.2h3.9c1,0,1.9,0.4,2.7,1.1C44,17.9,44.4,18.8,44.4,19.8z"/>
<path class="st0" d="M69,4.8v8.3c0,2-0.5,3.8-1.4,5.4c-0.9,1.7-2.2,3-3.8,3.9C62.9,23,62,23.4,61,23.7c-1,0.3-2,0.4-3,0.4H56
	c-2,0-3.8-0.5-5.4-1.4c-1.7-0.9-3-2.2-3.9-3.8c-0.5-0.9-0.9-1.8-1.2-2.7c-0.3-1-0.4-2-0.4-3.1V4.8c0-1.3,0.5-2.5,1.4-3.4
	S48.5,0,49.8,0h0.9c1.3,0,2.5,0.5,3.4,1.4s1.4,2.1,1.4,3.4v7.9c0,0.4,0.1,0.7,0.4,1s0.6,0.4,1,0.4H57c0.4,0,0.7-0.1,1-0.4
	s0.4-0.6,0.4-1V4.8c0-1.3,0.5-2.5,1.4-3.4c1-0.9,2.1-1.4,3.4-1.4h0.9c1.3,0,2.5,0.5,3.4,1.4C68.5,2.4,69,3.5,69,4.8z"/>
<path class="st0" d="M103.7,4.8v14.6c0,1.3-0.5,2.5-1.4,3.4c-0.9,0.9-2.1,1.4-3.4,1.4h-0.9c-1.3,0-2.4-0.5-3.4-1.4s-1.4-2.1-1.4-3.4
	v-1.1c0-0.5-0.6-0.7-0.9-0.4c-0.6,0.6-1.2,1.2-1.6,1.6c-0.5,0.5-1,0.8-1.6,1c-0.6,0.2-1.2,0.4-1.8,0.4h0c-0.6,0-1.2-0.1-1.8-0.4
	c-0.6-0.2-1.1-0.6-1.6-1c-0.4-0.4-0.9-0.9-1.6-1.6c-0.3-0.4-0.9-0.1-0.9,0.4v1.1c0,1.3-0.5,2.5-1.4,3.4c-0.9,0.9-2.1,1.4-3.4,1.4
	h-0.9c-1.3,0-2.4-0.5-3.4-1.4s-1.4-2.1-1.4-3.4V4.8c0-1.3,0.5-2.5,1.4-3.4S74.2,0,75.5,0h0.9c1.3,0,2.4,0.5,3.4,1.4
	c0,0,3.8,3.8,6.4,6.3c0.3,0.3,0.6,0.4,1,0.4h0c0.4,0,0.7-0.1,1-0.4c2.6-2.6,6.4-6.3,6.4-6.3C95.5,0.5,96.6,0,97.9,0h0.9
	c1.3,0,2.4,0.5,3.4,1.4S103.6,3.5,103.7,4.8L103.7,4.8z"/>
<path class="st0" d="M116,19.4c0,1.3-0.5,2.5-1.4,3.4c-0.9,0.9-2.1,1.4-3.4,1.4h-0.9c-1.3,0-2.4-0.5-3.4-1.4s-1.4-2.1-1.4-3.4V4.8
	c0-1.3,0.5-2.5,1.4-3.4s2.1-1.4,3.4-1.4h0.9c1.3,0,2.4,0.5,3.4,1.4s1.4,2.1,1.4,3.4V19.4L116,19.4z"/>
<path class="st0" d="M141.8,4.8v14.9c0,1.2-0.4,2.3-1.3,3.1c-0.9,0.9-1.9,1.3-3.1,1.3h0c-0.5,0-1-0.1-1.5-0.3
	c-0.5-0.2-0.9-0.4-1.3-0.7c-0.2-0.1-0.3-0.2-0.4-0.3c-0.1-0.1-0.2-0.2-0.3-0.4c-1.1-1.3-2.8-3.3-5-6c-0.2-0.2-0.4-0.2-0.6-0.1
	c-0.2,0.1-0.3,0.2-0.3,0.5v2.6c0,1.3-0.5,2.5-1.4,3.4c-0.9,0.9-2.1,1.4-3.4,1.4h-0.4c-1.3,0-2.4-0.5-3.4-1.4s-1.4-2.1-1.4-3.4V4.8
	c0-1.3,0.5-2.5,1.4-3.4s2.1-1.4,3.4-1.4h0.7c0.4,0,0.8,0.1,1.2,0.2c0.5,0.1,0.9,0.3,1.4,0.6c0.2,0.2,0.4,0.3,0.6,0.5
	c0.2,0.2,0.4,0.4,0.5,0.6c0.8,1,2.1,2.6,3.8,4.7c0.2,0.2,0.4,0.2,0.6,0.1c0.2-0.1,0.3-0.3,0.3-0.5V4.8c0-1.3,0.5-2.5,1.4-3.4
	s2.1-1.4,3.4-1.4h0.4c1.3,0,2.5,0.5,3.4,1.4C141.3,2.3,141.7,3.5,141.8,4.8L141.8,4.8z"/>
<path class="st0" d="M167.5,4.8v8.3c0,2-0.5,3.8-1.4,5.4c-0.9,1.7-2.2,3-3.8,3.9c-0.9,0.5-1.8,0.9-2.8,1.2c-1,0.3-2,0.4-3.1,0.4
	h-1.9c-2,0-3.8-0.5-5.4-1.4c-1.7-0.9-3-2.2-3.9-3.8c-0.5-0.9-0.9-1.8-1.2-2.7c-0.3-1-0.4-2-0.4-3.1V4.8c0-1.3,0.5-2.5,1.4-3.4
	S147,0,148.4,0h0.9c1.3,0,2.4,0.5,3.4,1.4s1.4,2.1,1.4,3.4v7.9c0,0.4,0.1,0.7,0.4,1s0.6,0.4,1,0.4h0.1c0.4,0,0.7-0.1,1-0.4
	s0.4-0.6,0.4-1V4.8c0-1.3,0.5-2.5,1.4-3.4c1-0.9,2.1-1.4,3.4-1.4h0.9c1.3,0,2.5,0.5,3.4,1.4C167,2.4,167.5,3.5,167.5,4.8z"/>
<path class="st0" d="M202.2,4.8v14.6c0,1.3-0.5,2.5-1.4,3.4c-0.9,0.9-2.1,1.4-3.4,1.4h-0.9c-1.3,0-2.4-0.5-3.4-1.4s-1.4-2.1-1.4-3.4
	v-1.1c0-0.5-0.6-0.7-0.9-0.4c-0.6,0.6-1.2,1.2-1.6,1.6c-0.5,0.5-1,0.8-1.6,1c-0.6,0.2-1.2,0.4-1.8,0.4h0c-0.6,0-1.2-0.1-1.8-0.4
	c-0.6-0.2-1.1-0.6-1.6-1c-0.4-0.4-0.9-0.9-1.6-1.6c-0.4-0.4-0.9-0.1-0.9,0.4v1.1c0,1.3-0.5,2.5-1.4,3.4c-0.9,0.9-2.1,1.4-3.4,1.4
	h-0.9c-1.3,0-2.4-0.5-3.4-1.4s-1.4-2.1-1.4-3.4V4.8c0-1.3,0.5-2.5,1.4-3.4s2.1-1.4,3.4-1.4h0.9c1.3,0,2.4,0.5,3.4,1.4
	c0,0,3.8,3.8,6.4,6.3c0.3,0.3,0.6,0.4,1,0.4h0c0.4,0,0.7-0.1,1-0.4c2.6-2.6,6.4-6.3,6.4-6.3c0.9-0.9,2.1-1.4,3.4-1.4h0.9
	c1.3,0,2.4,0.5,3.4,1.4S202.2,3.5,202.2,4.8L202.2,4.8z"/>
<path class="st0" d="M12.2,10.1L12.2,10.1c-0.4,0-0.8,0.1-1,0.4c-0.3,0.3-0.4,0.6-0.4,1v2c0,0.1,0,0.2,0.1,0.2s0.1,0.1,0.2,0.2
	c0.6,0.4,1,1,1.4,1.7c0.4,0.7,0.5,1.4,0.5,2.2v1.5c0,1.3-0.5,2.5-1.4,3.5c-0.9,1-2.1,1.4-3.4,1.4H4.8c-1.3,0-2.5-0.5-3.4-1.4
	c-0.9-1-1.4-2.1-1.4-3.5v-8.2c0-2,0.5-3.8,1.5-5.5c0.9-1.7,2.2-3,3.8-4C6.1,1.2,7,0.8,8,0.5c1-0.3,2-0.4,3.1-0.4h2.2
	c2,0,3.8,0.5,5.5,1.5c1.7,1,3,2.2,4,3.8c0.5,0.9,0.9,1.8,1.2,2.7c0.3,1,0.4,2,0.4,3.1v8.2c0,1.3-0.5,2.5-1.4,3.5
	c-1,1-2.1,1.4-3.4,1.4h-1.1c-1.3,0-2.5-0.5-3.4-1.4c-1-1-1.5-2.1-1.5-3.5v-7.8c0-0.4-0.1-0.7-0.4-1C13,10.3,12.6,10.2,12.2,10.1
	L12.2,10.1z"/>
<path class="st0" d="M23.1,41.3L23.1,41.3c0,0.4,0.1,0.8,0.4,1c0.3,0.3,0.6,0.4,1,0.4h2c0.1,0,0.2,0,0.2-0.1c0.1,0,0.1-0.1,0.2-0.2
	c0.5-0.6,1-1,1.6-1.3c0.7-0.4,1.4-0.5,2.2-0.5h1.5c1.3,0,2.5,0.5,3.4,1.4c0.9,0.9,1.4,2.1,1.4,3.4v3.2c0,1.3-0.5,2.5-1.4,3.4
	c-1,0.9-2.1,1.4-3.4,1.4h-8.1c-2,0-3.8-0.5-5.4-1.4c-1.7-0.9-3-2.2-3.9-3.8c-0.5-0.8-0.9-1.8-1.2-2.7c-0.3-1-0.4-2-0.4-3.1v-2.2
	c0-2,0.5-3.8,1.4-5.4c0.9-1.7,2.2-3,3.8-3.9c0.9-0.5,1.8-0.9,2.7-1.2c1-0.3,2-0.4,3.1-0.4h8.1c1.3,0,2.5,0.5,3.4,1.4
	c0.9,0.9,1.4,2.1,1.4,3.4v1.1c0,1.3-0.5,2.5-1.4,3.4c-1,1-2.1,1.4-3.4,1.4h-7.7c-0.4,0-0.7,0.1-1,0.4C23.2,40.6,23.1,40.9,23.1,41.3
	L23.1,41.3z"/>
<path class="st0" d="M60.2,51.7L60,52c-0.9,1-2.1,1.4-3.4,1.4s-2.5-0.5-3.4-1.4c-0.8-0.8-2.1-2.1-3.8-3.7c-0.1-0.1-0.2-0.1-0.4-0.1
	c-0.1,0-0.2,0.2-0.2,0.3v0.1c0,1.3-0.5,2.5-1.4,3.4s-2.1,1.4-3.4,1.4h-0.4c-1.3,0-2.5-0.5-3.4-1.4s-1.4-2.1-1.4-3.4V34.1
	c0-1.3,0.5-2.5,1.4-3.4c0.9-1,2.1-1.4,3.4-1.4H53c0.8,0,1.6,0.1,2.4,0.4c0.8,0.2,1.5,0.5,2.2,0.9c1.2,0.8,2.2,1.8,3,3.1
	c0.7,1.3,1.1,2.7,1.1,4.2v0.5c0,1.1-0.2,2.2-0.6,3.2c-0.4,1-1,1.9-1.6,2.6c0.2,0.2,0.5,0.5,0.8,0.8c0.9,0.9,1.4,2.1,1.4,3.4
	S61.2,50.8,60.2,51.7L60.2,51.7z M48.8,38.7c0,0.2,0.1,0.3,0.2,0.5s0.3,0.2,0.5,0.2h1.8c0.4,0,0.7-0.1,1-0.4s0.4-0.6,0.4-0.9v-0.1
	c0-0.4-0.1-0.7-0.4-0.9c-0.3-0.3-0.6-0.4-1-0.4h-1.8c-0.2,0-0.3,0.1-0.5,0.2c-0.1,0.1-0.2,0.3-0.2,0.5V38.7L48.8,38.7z"/>
<path class="st0" d="M86.2,40.3v2.2c0,2-0.5,3.8-1.4,5.4c-0.9,1.7-2.2,3-3.8,3.9c-0.8,0.5-1.8,0.9-2.8,1.2c-1,0.3-2,0.4-3.1,0.4
	h-1.9c-2,0-3.8-0.5-5.4-1.4c-1.7-0.9-3-2.2-3.9-3.8c-0.5-0.8-0.9-1.8-1.2-2.7c-0.3-1-0.4-2-0.4-3.1v-2.2c0-2,0.5-3.8,1.4-5.4
	c0.9-1.7,2.2-3,3.8-3.9c0.8-0.5,1.8-0.9,2.7-1.2c1-0.3,2-0.4,3.1-0.4h1.9c1.1,0,2.1,0.1,3.1,0.4s1.9,0.7,2.7,1.2
	c1.6,1,2.8,2.3,3.8,3.9C85.8,36.5,86.2,38.3,86.2,40.3L86.2,40.3z M75.7,40.8c0-0.4-0.1-0.7-0.4-1s-0.6-0.4-1-0.4h-0.1
	c-0.4,0-0.7,0.1-1,0.4s-0.4,0.6-0.4,1v1.2c0,0.4,0.1,0.7,0.4,1s0.6,0.4,1,0.4h0.1c0.4,0,0.7-0.1,1-0.4s0.4-0.6,0.4-1V40.8z"/>
<path class="st0" d="M112,34.1v8.3c0,2-0.5,3.8-1.4,5.4c-0.9,1.7-2.2,3-3.8,3.9c-0.8,0.5-1.8,0.9-2.8,1.2c-1,0.3-2,0.4-3.1,0.4H99
	c-2,0-3.8-0.5-5.4-1.4c-1.7-0.9-3-2.2-3.9-3.8c-0.5-0.8-0.9-1.8-1.2-2.7c-0.3-1-0.4-2-0.4-3.1v-8.3c0-1.3,0.5-2.5,1.4-3.4
	s2.1-1.4,3.4-1.4h0.9c1.3,0,2.4,0.5,3.4,1.4s1.4,2.1,1.4,3.4v7.9c0,0.4,0.1,0.7,0.4,1s0.6,0.4,1,0.4h0.1c0.4,0,0.7-0.1,1-0.4
	s0.4-0.6,0.4-1v-7.9c0-1.3,0.5-2.5,1.4-3.4c1-0.9,2.1-1.4,3.4-1.4h0.9c1.3,0,2.5,0.5,3.4,1.4C111.5,31.6,112,32.7,112,34.1L112,34.1
	z"/>
<path class="st0" d="M137.7,34.1v14.9c0,1.2-0.4,2.3-1.3,3.2c-0.9,0.9-1.9,1.3-3.1,1.3h0c-0.5,0-1-0.1-1.5-0.3
	c-0.5-0.2-0.9-0.4-1.3-0.7c-0.2-0.1-0.3-0.2-0.4-0.3c-0.1-0.1-0.2-0.2-0.3-0.4c-1.1-1.3-2.8-3.3-5-6c-0.2-0.2-0.4-0.2-0.6-0.1
	c-0.2,0.1-0.3,0.2-0.3,0.5v2.6c0,1.3-0.5,2.5-1.4,3.4s-2.1,1.4-3.4,1.4h-0.4c-1.3,0-2.4-0.5-3.4-1.4s-1.4-2.1-1.4-3.4V34.1
	c0-1.3,0.5-2.5,1.4-3.4s2.1-1.4,3.4-1.4h0.7c0.4,0,0.8,0.1,1.2,0.2c0.5,0.1,0.9,0.3,1.4,0.6c0.2,0.2,0.4,0.3,0.6,0.5
	c0.2,0.2,0.4,0.4,0.5,0.6c0.8,1.1,2.1,2.6,3.8,4.7c0.2,0.2,0.4,0.2,0.6,0.1c0.2-0.1,0.3-0.3,0.3-0.5v-1.3c0-1.3,0.5-2.5,1.4-3.4
	c0.9-0.9,2.1-1.4,3.4-1.4h0.4c1.3,0,2.5,0.5,3.4,1.4C137.2,31.6,137.7,32.7,137.7,34.1L137.7,34.1z"/>
<path class="st0" d="M163.4,39.6v3.5c0,1-0.1,1.9-0.4,2.8c-0.3,0.9-0.6,1.8-1.1,2.6c-0.9,1.5-2.1,2.6-3.7,3.5
	c-1.5,0.9-3.2,1.3-5.1,1.3h-8.8c-1.3,0-2.4-0.5-3.4-1.4s-1.4-2.1-1.4-3.4V34c0-1.3,0.5-2.5,1.4-3.4s2.1-1.4,3.4-1.4h8.8
	c1.8,0,3.5,0.5,5.1,1.3c1.5,0.9,2.8,2.1,3.7,3.5c0.5,0.8,0.9,1.7,1.1,2.6C163.3,37.6,163.4,38.6,163.4,39.6L163.4,39.6z M153.4,41.3
	c0-0.4-0.1-0.7-0.4-1s-0.6-0.4-1-0.4h-2.7c-0.2,0-0.4,0.1-0.5,0.2s-0.2,0.3-0.2,0.5v1.4c0,0.2,0.1,0.4,0.2,0.5
	c0.1,0.1,0.3,0.2,0.5,0.2h2.7c0.4,0,0.7-0.1,1-0.4C153.2,42.1,153.4,41.8,153.4,41.3C153.4,41.4,153.4,41.3,153.4,41.3z"/>
<path class="st0" d="M175.6,37.4c-0.1,0-0.2,0-0.2,0.1c-0.1,0-0.1,0.1-0.1,0.2v0c0,0.1,0,0.2,0.1,0.2c0.1,0.1,0.1,0.1,0.2,0.1h6
	c2.1,0,3.9,0.7,5.4,2.2c1.5,1.5,2.2,3.3,2.2,5.4v0.2c0,2.1-0.7,3.9-2.2,5.3c-1.5,1.5-3.3,2.2-5.4,2.2H169c-1.1,0-1.9-0.4-2.7-1.1
	s-1.1-1.6-1.1-2.7v-0.5c0-1,0.4-2,1.1-2.7s1.6-1.1,2.7-1.1h9.8c0.1,0,0.2,0,0.3-0.1c0.1-0.1,0.1-0.2,0.1-0.3v0c0-0.1,0-0.2-0.1-0.2
	c-0.1-0.1-0.2-0.1-0.3-0.1h-6c-2.1,0-3.9-0.7-5.3-2.2c-1.5-1.5-2.2-3.2-2.2-5.3v-0.3c0-2.1,0.7-3.9,2.2-5.3c1.5-1.5,3.2-2.2,5.3-2.2
	h12.6c1.1,0,1.9,0.4,2.7,1.1s1.1,1.6,1.1,2.7v0.5c0,1-0.4,2-1.1,2.7s-1.6,1.1-2.7,1.1L175.6,37.4L175.6,37.4z"/>
</svg>
