<?xml version="1.0" encoding="utf-8"?>
<!-- Generator: Adobe Illustrator 27.7.0, SVG Export Plug-In . SVG Version: 6.00 Build 0)  -->
<svg version="1.1" id="Layer_1" xmlns="http://www.w3.org/2000/svg" xmlns:xlink="http://www.w3.org/1999/xlink" x="0px" y="0px"
	 viewBox="0 0 154.3 154" style="enable-background:new 0 0 154.3 154;" xml:space="preserve">
<style type="text/css">
	.st0{fill:#FFFFF1;}
	.st1{fill:none;stroke:#FFFFFF;}
	.st2{fill:#C0D0DB;}
</style>
<path class="st0" d="M32.9,73.7c0-0.9,0.2-1.7,0.5-2.5c0.3-0.8,0.8-1.5,1.4-2.1c0.6-0.6,1.3-1.1,2.1-1.4c0.8-0.3,1.6-0.5,2.5-0.5
	l10.8,0c1.7,0,3.4,0.7,4.6,1.9c1.2,1.2,1.9,2.9,1.9,4.6v40.9c1.2-0.4,2.8-0.7,4.5-1.2c1.2-0.3,2.2-1,3-1.9c0.8-1,1.2-2.1,1.2-3.4
	V57.5c0-1.7,0.7-3.4,1.9-4.6c1.2-1.2,2.9-1.9,4.6-1.9h10.8c1.7,0,3.4,0.7,4.6,1.9c1.2,1.2,1.9,2.9,1.9,4.6v47.1c0,0,2.7-1.1,5.4-2.2
	c1-0.4,1.8-1.1,2.4-2c0.6-0.9,0.9-1.9,0.9-3V41.2c0-1.7,0.7-3.4,1.9-4.6c1.2-1.2,2.9-1.9,4.6-1.9h10.8c1.7,0,3.4,0.7,4.6,1.9
	c1.2,1.2,1.9,2.9,1.9,4.6v46.2c9.4-6.8,18.9-15,26.5-24.9c1.1-1.4,1.8-3.1,2.1-4.9c0.3-1.8,0.1-3.6-0.5-5.3
	c-3.5-10.1-9.1-19.3-16.3-27.1c-7.3-7.8-16.1-14-25.9-18.2C97.9,3,87.3,0.9,76.7,1C66,1.1,55.5,3.5,45.8,7.9
	c-9.7,4.4-18.4,10.8-25.4,18.8C13.3,34.7,7.9,44,4.7,54.2C1.4,64.3,0.3,75,1.4,85.6c1.1,10.6,4.4,20.8,9.7,30.1
	c0.9,1.6,2.3,2.9,3.9,3.7c1.6,0.8,3.5,1.2,5.3,1c2.1-0.2,4.6-0.4,7.6-0.8c1.3-0.2,2.5-0.8,3.4-1.8c0.9-1,1.4-2.3,1.4-3.6L32.9,73.7"
	/>
<path class="st1" d="M32.9,73.7c0-0.9,0.2-1.7,0.5-2.5c0.3-0.8,0.8-1.5,1.4-2.1c0.6-0.6,1.3-1.1,2.1-1.4c0.8-0.3,1.6-0.5,2.5-0.5
	l10.8,0c1.7,0,3.4,0.7,4.6,1.9c1.2,1.2,1.9,2.9,1.9,4.6v40.9c1.2-0.4,2.8-0.7,4.5-1.2c1.2-0.3,2.2-1,3-1.9c0.8-1,1.2-2.1,1.2-3.4
	V57.5c0-1.7,0.7-3.4,1.9-4.6c1.2-1.2,2.9-1.9,4.6-1.9h10.8c1.7,0,3.4,0.7,4.6,1.9c1.2,1.2,1.9,2.9,1.9,4.6v47.1c0,0,2.7-1.1,5.4-2.2
	c1-0.4,1.8-1.1,2.4-2c0.6-0.9,0.9-1.9,0.9-3V41.2c0-1.7,0.7-3.4,1.9-4.6c1.2-1.2,2.9-1.9,4.6-1.9h10.8c1.7,0,3.4,0.7,4.6,1.9
	c1.2,1.2,1.9,2.9,1.9,4.6v46.2c9.4-6.8,18.9-15,26.5-24.9c1.1-1.4,1.8-3.1,2.1-4.9c0.3-1.8,0.1-3.6-0.5-5.3
	c-3.5-10.1-9.1-19.3-16.3-27.1c-7.3-7.8-16.1-14-25.9-18.2C97.9,3,87.3,0.9,76.7,1C66,1.1,55.5,3.5,45.8,7.9
	c-9.7,4.4-18.4,10.8-25.4,18.8C13.3,34.7,7.9,44,4.7,54.2C1.4,64.3,0.3,75,1.4,85.6c1.1,10.6,4.4,20.8,9.7,30.1
	c0.9,1.6,2.3,2.9,3.9,3.7c1.6,0.8,3.5,1.2,5.3,1c2.1-0.2,4.6-0.4,7.6-0.8c1.3-0.2,2.5-0.8,3.4-1.8c0.9-1,1.4-2.3,1.4-3.6L32.9,73.7"
	/>
<path class="st2" d="M32.6,139.3c11.4,8.3,24.9,13.3,39,14.4c14.1,1.1,28.2-1.7,40.8-8.1c12.6-6.4,23.2-16.2,30.5-28.2
	c7.4-12,11.3-25.9,11.3-40c0-1.8-0.1-3.5-0.2-5.2C126.1,113.9,74.4,133.4,32.6,139.3"/>
</svg>
